<?xml version="1.0" encoding="utf-8"?>
<!-- Generator: Adobe Illustrator 15.1.0, SVG Export Plug-In . SVG Version: 6.00 Build 0)  -->
<!DOCTYPE svg PUBLIC "-//W3C//DTD SVG 1.1//EN" "http://www.w3.org/Graphics/SVG/1.1/DTD/svg11.dtd">
<svg version="1.1" id="Layer_1" xmlns="http://www.w3.org/2000/svg" xmlns:xlink="http://www.w3.org/1999/xlink" x="0px" y="0px"
	 width="510.236px" height="609.449px" viewBox="0 0 510.236 609.449" enable-background="new 0 0 510.236 609.449"
	 xml:space="preserve">
<path fill="#FFFFFF" d="M495.216,49.551c0-2.729-2.229-4.953-5.002-4.953h-14.07c-0.078-1.078-0.229-2.174-0.508-3.302L469.8,18.179
	C467.265,8.175,456.691,0,446.283,0H63.914C53.529,0,42.953,8.175,40.435,18.179l-5.843,23.116c-0.29,1.128-0.44,2.224-0.498,3.302
	H20.002c-2.761,0-5.001,2.224-5.001,4.953v24.78L0,118.915h30.004l8.526,59.457h433.159l8.518-59.457h30.029l-15.02-44.584V49.551z"
	/>
<path fill="#FFFFFF" d="M450.191,460.815l38.381-267.567H21.646l38.38,267.567H450.191z M199.876,277.966
	c7.527-7.449,16.061-13.346,25.579-17.643c9.535-4.305,19.68-6.917,30.411-7.817l-0.094-25.624c0-3.705,0.896-5.896,2.753-6.591
	c1.777-0.661,3.967,0.227,6.467,2.7l37.09,36.741c1.758,1.738,2.625,3.765,2.604,6.097c0.041,1.065-0.184,2.108-0.576,3.151
	c-0.395,1.004-1.033,1.945-1.881,2.792l-37.09,36.737c-2.521,2.491-4.674,3.411-6.57,2.786c-1.861-0.663-2.791-2.794-2.796-6.526
	l0.094-25.29c-6.909,0.778-13.48,2.654-19.779,5.63c-6.324,2.947-11.967,6.937-16.987,11.908c-6.24,6.181-10.89,13.143-13.989,20.81
	c-3.059,7.702-4.587,15.54-4.545,23.563c0.021,8.023,1.55,15.861,4.589,23.51c3.056,7.645,7.706,14.604,13.945,20.803
	c6.24,6.164,13.246,10.768,20.974,13.793c7.728,2.99,15.662,4.543,23.745,4.561c8.086,0.006,16.012-1.471,23.781-4.527
	c7.768-3.041,14.793-7.662,21.045-13.826c5.547-5.504,9.846-11.746,12.943-18.697c2.324-5.254,3.918-10.619,4.779-16.113
	c0.449-2.934,3.02-5.314,6.004-5.301l16.904,0.055c2.988,0.01,5.264,2.41,4.893,5.346c-1.23,9.086-4.039,18.723-7.734,26.994
	c-4.41,9.947-10.629,18.852-18.604,26.748c-8.848,8.764-18.834,15.354-29.922,19.734c-11.115,4.418-22.48,6.59-34.053,6.59
	c-11.57,0-22.931-2.189-34.011-6.59c-11.136-4.395-21.117-10.971-29.968-19.717c-8.874-8.795-15.512-18.684-19.932-29.693
	c-4.444-11.008-6.654-22.234-6.654-33.707c-0.021-11.48,2.21-22.698,6.638-33.713C184.345,296.632,191.002,286.749,199.876,277.966z
	"/>
<polygon fill="#FFFFFF" points="81.165,475.657 100.354,609.45 409.88,609.45 429.05,475.657 "/>
</svg>
